<svg width="200" height="200" viewBox="0 0 200 200" fill="none" xmlns="http://www.w3.org/2000/svg">
<mask id="mask0_1091_18" style="mask-type:alpha" maskUnits="userSpaceOnUse" x="9" y="20" width="101" height="102">
<rect x="10.5695" y="34.4458" width="86" height="86" rx="11" transform="rotate(-8.25178 10.5695 34.4458)" fill="#F1EFFF" stroke="black" stroke-width="6" stroke-linejoin="round"/>
</mask>
<g mask="url(#mask0_1091_18)">
<rect x="13.969" y="36.9842" width="80" height="80" rx="8" transform="rotate(-8.25178 13.969 36.9842)" fill="#F1EFFF"/>
<circle cx="44.7081" cy="60.8192" r="20" transform="rotate(-8.25178 44.7081 60.8192)" fill="#FFE17C"/>
<path d="M55.0126 51.7463L21.6208 110.649L22.9842 120.05L108.589 107.636L102.561 66.0704L92.4072 79.6684L55.0126 51.7463Z" fill="#2DB7F2"/>
<rect x="10.5695" y="34.4458" width="86" height="86" rx="11" transform="rotate(-8.25178 10.5695 34.4458)" stroke="black" stroke-width="6" stroke-linejoin="round"/>
</g>
<mask id="mask1_1091_18" style="mask-type:alpha" maskUnits="userSpaceOnUse" x="88" y="32" width="106" height="106">
<rect x="108.385" y="33.4121" width="86" height="86" rx="11" transform="rotate(12.745 108.385 33.4121)" fill="#F1EFFF" stroke="black" stroke-width="6" stroke-linejoin="round"/>
</mask>
<g mask="url(#mask1_1091_18)">
<rect x="110.649" y="37" width="80" height="80" rx="8" transform="rotate(12.745 110.649 37)" fill="#E3F3FF"/>
<path d="M97.9812 88.4735C135.242 116.381 135.649 80.5892 165.316 94.4763C179.541 101.135 182.671 104.412 183.217 105.527C183.254 105.439 183.309 105.339 183.389 105.228L183.285 105.69C183.364 105.931 183.285 106.016 183.221 105.97L175.888 138.391L91.0319 119.197L97.9812 88.4735Z" fill="#F7D352"/>
<rect x="108.385" y="33.4121" width="86" height="86" rx="11" transform="rotate(12.745 108.385 33.4121)" stroke="black" stroke-width="6" stroke-linejoin="round"/>
<path d="M150.035 105.374C153.972 97.0367 149.83 73.6467 141.599 70.1447" stroke="#943102" stroke-width="6" stroke-linecap="round"/>
<path d="M140.247 69.3261C134.174 68.9778 127.375 74.1043 122.574 81.733M140.247 69.3261C145.042 63.2339 160.451 61.5928 165.118 74.9517M140.247 69.3261C137.53 56.4084 125.413 62.3825 126.104 66.1272M140.247 69.3261C145.547 73.0882 147.103 77.5412 145.007 86.8071" stroke="#38A368" stroke-width="6" stroke-linecap="round"/>
</g>
<rect x="46.7751" y="93.4872" width="86" height="86" rx="11" transform="rotate(-4.47636 46.7751 93.4872)" fill="#E9FFF1" stroke="black" stroke-width="6" stroke-linejoin="round"/>
<path d="M97.6475 166.74L65.8961 139.134L74.6256 128.922L96.1256 147.3L139.773 96.2373L149.986 104.967L97.6475 166.74Z" fill="#56BF80"/>
<path d="M65.8961 139.134L63.6157 137.185C62.5455 138.437 62.6848 140.317 63.9277 141.398L65.8961 139.134ZM97.6475 166.74L95.6791 169.004C96.2846 169.531 97.0757 169.793 97.8756 169.732C98.6756 169.671 99.4178 169.292 99.9364 168.679L97.6475 166.74ZM149.986 104.967L152.275 106.906C153.343 105.646 153.191 103.76 151.935 102.686L149.986 104.967ZM139.773 96.2373L141.723 93.9569C140.463 92.8803 138.57 93.0286 137.493 94.288L139.773 96.2373ZM96.1256 147.3L94.1763 149.58L96.4567 151.529L98.406 149.249L96.1256 147.3ZM74.6256 128.922L76.5749 126.641C75.3155 125.565 73.4218 125.713 72.3452 126.972L74.6256 128.922ZM63.9277 141.398L95.6791 169.004L99.6159 164.476L67.8644 136.87L63.9277 141.398ZM99.9364 168.679L152.275 106.906L147.697 103.028L95.3586 164.801L99.9364 168.679ZM151.935 102.686L141.723 93.9569L137.824 98.5177L148.037 107.247L151.935 102.686ZM137.493 94.288L93.8452 145.35L98.406 149.249L142.054 98.1866L137.493 94.288ZM98.0749 145.019L76.5749 126.641L72.6764 131.202L94.1763 149.58L98.0749 145.019ZM72.3452 126.972L63.6157 137.185L68.1765 141.083L76.9061 130.871L72.3452 126.972Z" fill="#00391D"/>
</svg>
