<svg width="746" height="433" viewBox="0 0 746 433" fill="none" xmlns="http://www.w3.org/2000/svg">
<path d="M638.273 261.472C638.273 261.472 630.017 209.642 627.819 211.664C625.621 213.685 622.144 254.481 622.144 254.481L585.715 238.692C585.715 238.692 578.96 226.841 575.549 224.041C572.138 221.24 573.644 241.392 573.644 241.392C573.644 241.392 559.178 254.952 562.164 254.924C565.149 254.895 579.806 252.325 579.806 252.325L616.235 268.114C616.235 268.114 585.801 302.514 588.508 302.365C591.215 302.216 632.364 275.105 632.364 275.105L662.676 288.242C662.676 288.242 674.925 291.485 677.092 286.228C679.236 281.027 668.585 274.609 668.585 274.609L638.273 261.472Z" fill="white"/>
<path d="M564 236.5C410.698 162.814 299.928 148.918 169 263" stroke="white" stroke-width="4" stroke-linecap="round" stroke-dasharray="16 16"/>
<path d="M114 290.5C115.5 285.5 130.5 270 130.5 266.5C130.5 263 127.5 236 127.5 236C135.129 234.417 139.4 234.02 147 234.5L147.127 236M114 290.5C112.5 295.5 113.807 298.915 117.5 301.5C118.934 302.504 120.725 302.707 122.524 302.5M114 290.5C118.167 289.5 127.3 289.9 130.5 299.5M130.5 299.5C129.511 300.159 126.005 302.099 122.524 302.5M130.5 299.5C130.875 299.25 132 298.062 133.5 296.398M147 281L140 272L149.5 264M147 281C147.658 280.342 148.578 279.745 149.5 279.044M147 281C145.875 282.125 138 291.406 133.5 296.398M149.5 264L147.127 236M149.5 264C149.5 264 150.565 265.617 151.5 267.776M147.127 236C148.111 235.525 151.493 235.559 153.5 236L156.5 265M156.5 265C156.5 265 156.608 265.18 156.784 265.5M156.5 265L156.784 265.5M137 302.5C140 300.5 144.726 292.623 150.5 286C151.07 285.346 151.976 284.617 153 283.804M137 302.5C134 304.5 127.43 304.268 122.524 302.5M137 302.5C137.013 299.45 136.21 298.144 133.5 296.398M153 283.804C155.571 281.765 158.887 279.202 159.5 276C160.227 272.203 157.661 267.099 156.784 265.5M153 283.804L149.5 279.044M149.5 279.044C150.679 278.147 151.861 277.081 152.5 275.5C153.415 273.237 152.538 270.173 151.5 267.776M156.784 265.5L151.5 267.776" stroke="white" stroke-width="4" stroke-linecap="round"/>
</svg>
